<?xml version="1.0" encoding="UTF-8"?>
<svg id="_圖層_1" data-name="圖層_1" xmlns="http://www.w3.org/2000/svg" version="1.1" viewBox="0 0 144 138">
  <!-- Generator: Adobe Illustrator 29.1.0, SVG Export Plug-In . SVG Version: 2.1.0 Build 142)  -->
  <defs>
    <style>
      .st0 {
        fill: #fff;
      }
    </style>
  </defs>
  <g id="WsfDFO">
    <g>
      <path d="M74.7,132.5c-7.5-.3-15-.5-22.2-2.4-12.3-3.3-22.1-10.2-28.5-21.5-4.4-7.9-8.7-15.8-10.7-24.7-1.2-5.1-2.1-10.3-2.8-15.5-.6-4.6-.9-9.3-.9-13.9.3-18.5,12-37.4,30.2-44.7,4-1.6,8.1-2.1,12.3-2.3,9-.4,17.7,1.7,26.5,3.7,10.7,2.4,20.4,6.8,29.2,13.1,7.1,5.1,13.6,10.7,17.8,18.6,2.9,5.3,4.4,11,5.8,16.8,1.5,6,1.7,12.1,1.4,18.2-.1,2.4-.8,4.8-1.1,7.1-.3,2.6-.2,5.2-.5,7.8-1.4,11.7-7,21-16.1,28.5-6.5,5.4-14.1,8.7-22.4,9.8-5.9.7-11.9.9-18,1.4ZM78.3,74.5c.3,3.1.6,6.4.9,9.8.6,5.6,1.3,11.1,3.6,16.4,1.7,4.1,5.6,5.9,9.4,4.4,3.7-1.4,5.4-5.4,4.1-9.5-.5-1.7-1.2-3.3-1.5-5-1.4-6.9-2-13.8-2-20.8s.2-7.2.5-10.7c.3-3.6,1.3-7.1,2.9-10.4.9-1.9,1.5-3.8,1-5.9-.6-2.9-3-5.1-5.8-5.6-3.2-.5-6,1-7.6,3.9-2.6,5.1-4.2,10.5-4.9,16.2-.2,1.8-.4,3.7-.6,5.8-2.9-2.2-5.8-1.9-8.8-.9-2.8,1-5.6,1.7-8.4,2.6-.4,0-.9.2-1.5.3v-1.8c.3-4.9.7-9.8.9-14.8,0-4.3-2.9-7.5-6.9-7.7-3.9-.2-7,2.6-7.4,6.8-.3,3.1-.4,6.3-.7,9.4-.8,11.4-1,22.7,1.3,34,.7,3.4,1.5,6.7,3.6,9.5,2.3,3,6.3,3.8,9.5,1.9,3.1-1.8,4.2-5.6,2.9-9.1-1-2.6-1.7-5.2-2.2-7.9-.9-4.9-.8-5,3.9-6.5,4.5-1.5,9.1-2.9,13.8-4.4Z"/>
      <path class="st0" d="M78.3,74.5c-4.7,1.5-9.3,2.9-14,4.5-4.7,1.6-4.8,1.7-3.9,6.5.5,2.7,1.3,5.4,2.2,7.9,1.3,3.5.3,7.3-2.9,9.1-3.2,1.9-7.1,1.2-9.5-1.9-2.1-2.8-3-6.2-3.6-9.5-2.2-11.3-2.1-22.6-1.3-34,.2-3.1.3-6.3.7-9.4.4-4.2,3.6-7,7.4-6.8,4,.2,7,3.4,6.9,7.7-.2,4.9-.6,9.8-.9,14.8v1.8c.6,0,1.1-.2,1.5-.3,2.8-.8,5.7-1.6,8.4-2.6,3-1,5.9-1.3,8.8.9.2-2.1.4-3.9.6-5.8.7-5.7,2.3-11.1,4.9-16.2,1.6-3,4.4-4.4,7.6-3.9,2.8.4,5.2,2.7,5.8,5.6.4,2.1,0,4-1,5.9-1.6,3.3-2.6,6.8-2.9,10.4-.3,3.6-.6,7.2-.5,10.7,0,7,.7,13.9,2,20.8.3,1.7,1,3.3,1.5,5,1.3,4.1-.4,8.1-4.1,9.5-3.8,1.5-7.7-.4-9.4-4.4-2.2-5.3-3-10.8-3.6-16.4-.1-3.4-.4-6.8-.7-9.9Z"/>
    </g>
  </g>
</svg>